<svg width="1920" height="1080" viewBox="0 0 1920 1080" fill="none" xmlns="http://www.w3.org/2000/svg">
<g clip-path="url(#clip0_7_77)">
<rect width="1920" height="1080" transform="matrix(-1 0 0 1 1920 0)" fill="url(#paint0_linear_7_77)"/>
<path d="M2092.5 143L2170 1423L562.228 1002.61C508.298 988.51 501.067 914.904 551.221 890.577L2092.5 143Z" fill="#2F7DBD" fill-opacity="0.1"/>
<path d="M1482.73 124.987C1468.36 102.603 1436.82 99.6074 1418.5 118.887L1236.45 310.468C1209.04 339.314 1234.66 386.367 1273.76 379.002L1545.86 327.755C1574.43 322.374 1588.48 289.79 1572.78 265.321L1482.73 124.987Z" fill="#245481" fill-opacity="0.24"/>
<path d="M2197.33 716.205C2212.65 692.754 2200.47 661.183 2173.36 654.107L1641.47 515.273C1602.54 505.11 1573.79 551.27 1600.08 581.733L1954.42 992.281C1972.24 1012.92 2004.87 1010.75 2019.78 987.919L2197.33 716.205Z" fill="#326A9B" fill-opacity="0.7"/>
<path d="M937.023 29.9466C905.358 23.7096 879.235 54.8099 890.845 84.9233L970.083 290.438C981.43 319.867 1020.37 325.999 1040.21 301.482L1172.78 137.685C1192.2 113.682 1179.13 77.6317 1148.83 71.6643L937.023 29.9466Z" fill="#295987" fill-opacity="0.29"/>
<path d="M1619.22 816.032C1600.85 794.176 1566.31 797.328 1552.2 822.151L1390.12 1107.19C1371.62 1139.74 1402.83 1178.02 1438.43 1166.45L1753.96 1063.93C1781.63 1054.94 1791.39 1020.81 1772.68 998.552L1619.22 816.032Z" fill="#255987" fill-opacity="0.49"/>
<path opacity="0.36" d="M1687.01 -121.41C1617.53 -155.08 1545.38 -80.5211 1581.32 -12.1846L1684.44 183.923C1700.8 215.038 1735.56 231.826 1770.1 225.298L1987.05 184.301C2062.82 169.985 2076.47 67.3249 2007.09 33.7004L1687.01 -121.41Z" fill="#4987BE" fill-opacity="0.46"/>
<circle cx="193.5" cy="193.5" r="193.5" transform="matrix(-1 0 0 1 1481 482)" fill="#2F6595"/>
<path d="M1909.2 984.85C1935.62 966.882 1971.4 985.615 1971.69 1017.57L1972.51 1108.25C1972.78 1138.47 1940.74 1158.07 1913.96 1144.05L1838.15 1104.36C1811.38 1090.35 1809.22 1052.84 1834.21 1035.85L1909.2 984.85Z" fill="#316492"/>
<path d="M1802.27 137.693C1838.3 120.8 1874.22 161.163 1853.25 194.986L1768.09 332.359C1754.26 354.67 1723.05 357.836 1705.02 338.757L1641.2 271.231C1622.49 251.424 1628.62 219.108 1653.3 207.54L1802.27 137.693Z" fill="#386E9C"/>
<path d="M1827.91 461.012C1866.44 467.6 1873.62 519.858 1838.29 536.59L1739.45 583.407C1713.91 595.501 1684.23 578.029 1682.41 549.835L1678.25 485.407C1676.58 459.622 1699.44 439.047 1724.9 443.401L1827.91 461.012Z" fill="#3871A1"/>
<path d="M1391.3 942.948C1410.41 937.233 1430.81 946.474 1439.12 964.61L1465.81 1022.86C1481.22 1056.49 1446.64 1091.22 1412.94 1075.96L1324.87 1036.06C1291.17 1020.8 1294.47 971.902 1329.91 961.304L1391.3 942.948Z" fill="#255786"/>
<path d="M1095.63 -39.7604C1096.09 -64.056 1126.65 -74.5077 1141.89 -55.5749L1262.77 94.6782C1274.59 109.36 1267.35 131.34 1249.12 136.125L1124.83 168.749C1108.15 173.126 1091.91 160.355 1092.23 143.117L1095.63 -39.7604Z" fill="#295A87"/>
</g>
<defs>
<linearGradient id="paint0_linear_7_77" x1="25" y1="45.5" x2="1843" y2="835.5" gradientUnits="userSpaceOnUse">
<stop stop-color="#3F77A5"/>
<stop offset="0.564077" stop-color="#17426F"/>
<stop offset="1" stop-color="#041F47"/>
</linearGradient>
<clipPath id="clip0_7_77">
<rect width="1920" height="1080" fill="white" transform="matrix(-1 0 0 1 1920 0)"/>
</clipPath>
</defs>
</svg>
