<svg width="1080" height="1920" viewBox="0 0 1080 1920" fill="none" xmlns="http://www.w3.org/2000/svg">
<g clip-path="url(#clip0_1_4)">
<rect width="1920" height="1080" transform="matrix(0 -1 -1 0 1080 1920)" fill="url(#paint0_linear_1_4)"/>
<path d="M937 2092.5L-343 2170L77.3892 562.228C91.4902 508.298 165.096 501.067 189.423 551.221L937 2092.5Z" fill="#2F7DBD" fill-opacity="0.1"/>
<path d="M955.013 1482.73C977.397 1468.36 980.393 1436.82 961.113 1418.5L769.532 1236.45C740.686 1209.04 693.633 1234.66 700.998 1273.76L752.245 1545.86C757.626 1574.43 790.21 1588.48 814.679 1572.78L955.013 1482.73Z" fill="#245481" fill-opacity="0.24"/>
<path d="M363.795 2197.33C387.246 2212.65 418.817 2200.47 425.893 2173.36L564.727 1641.47C574.89 1602.54 528.73 1573.79 498.267 1600.08L87.7193 1954.42C67.0768 1972.24 69.2543 2004.87 92.0812 2019.78L363.795 2197.33Z" fill="#326A9B" fill-opacity="0.7"/>
<path d="M1050.05 937.023C1056.29 905.358 1025.19 879.235 995.077 890.845L789.562 970.083C760.133 981.43 754.001 1020.37 778.518 1040.21L942.315 1172.78C966.318 1192.2 1002.37 1179.13 1008.34 1148.83L1050.05 937.023Z" fill="#295987" fill-opacity="0.29"/>
<path d="M263.968 1619.22C285.824 1600.85 282.672 1566.31 257.849 1552.2L-27.1921 1390.12C-59.7377 1371.62 -98.0205 1402.83 -86.4513 1438.43L16.0696 1753.96C25.0569 1781.63 59.1865 1791.39 81.4479 1772.68L263.968 1619.22Z" fill="#255987" fill-opacity="0.49"/>
<path opacity="0.36" d="M1201.41 1687.01C1235.08 1617.53 1160.52 1545.38 1092.18 1581.32L896.077 1684.44C864.962 1700.8 848.174 1735.56 854.702 1770.1L895.699 1987.05C910.015 2062.82 1012.68 2076.47 1046.3 2007.09L1201.41 1687.01Z" fill="#4987BE" fill-opacity="0.46"/>
<circle cx="193.5" cy="193.5" r="193.5" transform="matrix(0 -1 -1 0 598 1481)" fill="#2F6595"/>
<path d="M95.1496 1909.2C113.118 1935.62 94.385 1971.4 62.4348 1971.69L-28.2506 1972.51C-58.4698 1972.78 -78.0655 1940.74 -64.0495 1913.96L-24.3636 1838.15C-10.3476 1811.38 27.1555 1809.22 44.15 1834.21L95.1496 1909.2Z" fill="#316492"/>
<path d="M942.307 1802.27C959.2 1838.3 918.837 1874.22 885.014 1853.25L747.641 1768.09C725.33 1754.26 722.164 1723.05 741.243 1705.02L808.769 1641.2C828.576 1622.49 860.892 1628.62 872.46 1653.3L942.307 1802.27Z" fill="#386E9C"/>
<path d="M618.988 1827.91C612.4 1866.44 560.142 1873.62 543.41 1838.29L496.593 1739.45C484.499 1713.91 501.971 1684.23 530.165 1682.41L594.593 1678.25C620.378 1676.58 640.953 1699.44 636.599 1724.9L618.988 1827.91Z" fill="#3871A1"/>
<path d="M137.052 1391.3C142.767 1410.41 133.526 1430.81 115.39 1439.12L57.1419 1465.81C23.5107 1481.22 -11.2193 1446.64 4.04395 1412.94L43.9364 1324.87C59.1997 1291.17 108.098 1294.47 118.696 1329.91L137.052 1391.3Z" fill="#255786"/>
<path d="M1119.76 1095.63C1144.06 1096.09 1154.51 1126.65 1135.57 1141.89L985.322 1262.77C970.64 1274.59 948.66 1267.35 943.875 1249.12L911.251 1124.83C906.874 1108.15 919.645 1091.91 936.883 1092.23L1119.76 1095.63Z" fill="#295A87"/>
</g>
<defs>
<linearGradient id="paint0_linear_1_4" x1="25" y1="45.5" x2="1843" y2="835.5" gradientUnits="userSpaceOnUse">
<stop stop-color="#3F77A5"/>
<stop offset="0.564077" stop-color="#17426F"/>
<stop offset="1" stop-color="#041F47"/>
</linearGradient>
<clipPath id="clip0_1_4">
<rect width="1920" height="1080" fill="white" transform="matrix(0 -1 -1 0 1080 1920)"/>
</clipPath>
</defs>
</svg>
