<svg width="1036" height="2700" viewBox="0 0 1036 2700" fill="none" xmlns="http://www.w3.org/2000/svg">
<g clip-path="url(#clip0_7_77)">
<rect width="2700" height="1036" transform="matrix(0 -1 -1 0 1036 2700)" fill="url(#paint0_linear_7_77)"/>
<path d="M893 2872.5L-387 2950L33.3892 1342.23C47.4902 1288.3 121.096 1281.07 145.423 1331.22L893 2872.5Z" fill="#2F7DBD" fill-opacity="0.1"/>
<path d="M911.013 2262.73C933.397 2248.36 936.393 2216.82 917.113 2198.5L725.532 2016.45C696.686 1989.04 649.633 2014.66 656.998 2053.76L708.245 2325.86C713.626 2354.43 746.21 2368.48 770.679 2352.78L911.013 2262.73Z" fill="#245481" fill-opacity="0.24"/>
<path d="M319.795 2977.33C343.246 2992.65 374.817 2980.47 381.893 2953.36L520.727 2421.47C530.89 2382.54 484.73 2353.79 454.267 2380.08L43.7193 2734.42C23.0768 2752.24 25.2543 2784.87 48.0812 2799.78L319.795 2977.33Z" fill="#326A9B" fill-opacity="0.7"/>
<path d="M1006.05 1717.02C1012.29 1685.36 981.19 1659.23 951.077 1670.85L745.562 1750.08C716.133 1761.43 710.001 1800.37 734.518 1820.21L898.315 1952.78C922.318 1972.2 958.368 1959.13 964.336 1928.83L1006.05 1717.02Z" fill="#295987" fill-opacity="0.29"/>
<path d="M219.968 2399.22C241.824 2380.85 238.672 2346.31 213.849 2332.2L-71.1921 2170.12C-103.738 2151.62 -142.02 2182.83 -130.451 2218.43L-27.9304 2533.96C-18.9431 2561.63 15.1865 2571.39 37.4479 2552.68L219.968 2399.22Z" fill="#255987" fill-opacity="0.49"/>
<path opacity="0.36" d="M1157.41 2467.01C1191.08 2397.53 1116.52 2325.38 1048.18 2361.32L852.077 2464.44C820.962 2480.8 804.174 2515.56 810.702 2550.1L851.699 2767.05C866.015 2842.82 968.675 2856.47 1002.3 2787.09L1157.41 2467.01Z" fill="#4987BE" fill-opacity="0.46"/>
<circle cx="193.5" cy="193.5" r="193.5" transform="matrix(0 -1 -1 0 554 2261)" fill="#2F6595"/>
<path d="M51.1496 2689.2C69.1176 2715.62 50.385 2751.4 18.4348 2751.69L-72.2507 2752.51C-102.47 2752.78 -122.065 2720.74 -108.05 2693.96L-68.3636 2618.15C-54.3476 2591.38 -16.8445 2589.22 0.150041 2614.21L51.1496 2689.2Z" fill="#316492"/>
<path d="M898.307 2582.27C915.2 2618.3 874.837 2654.22 841.014 2633.25L703.641 2548.09C681.33 2534.26 678.164 2503.05 697.243 2485.02L764.769 2421.2C784.576 2402.49 816.892 2408.62 828.46 2433.3L898.307 2582.27Z" fill="#386E9C"/>
<path d="M574.988 2607.91C568.4 2646.44 516.142 2653.62 499.41 2618.29L452.593 2519.45C440.499 2493.91 457.971 2464.23 486.165 2462.41L550.593 2458.25C576.378 2456.58 596.953 2479.44 592.599 2504.9L574.988 2607.91Z" fill="#3871A1"/>
<path d="M93.0522 2171.3C98.7674 2190.41 89.5263 2210.81 71.3902 2219.12L13.1419 2245.81C-20.4893 2261.22 -55.2193 2226.64 -39.956 2192.94L-0.0635564 2104.87C15.1997 2071.17 64.0981 2074.47 74.6963 2109.91L93.0522 2171.3Z" fill="#255786"/>
<path d="M1075.76 1875.63C1100.06 1876.09 1110.51 1906.65 1091.57 1921.89L941.322 2042.77C926.64 2054.59 904.66 2047.35 899.875 2029.12L867.251 1904.83C862.874 1888.15 875.645 1871.91 892.883 1872.23L1075.76 1875.63Z" fill="#295A87"/>
</g>
<defs>
<linearGradient id="paint0_linear_7_77" x1="35.1563" y1="43.6463" x2="2197.13" y2="1420.89" gradientUnits="userSpaceOnUse">
<stop stop-color="#3F77A5"/>
<stop offset="0.564077" stop-color="#17426F"/>
<stop offset="1" stop-color="#041F47"/>
</linearGradient>
<clipPath id="clip0_7_77">
<rect width="2700" height="1036" fill="white" transform="matrix(0 -1 -1 0 1036 2700)"/>
</clipPath>
</defs>
</svg>
