<svg width="1200" height="2133" viewBox="0 0 1200 2133" fill="none" xmlns="http://www.w3.org/2000/svg">
<g clip-path="url(#clip0_7_77)">
<rect width="2133" height="1200" transform="matrix(0 -1 -1 0 1200 2133)" fill="url(#paint0_linear_7_77)"/>
<path d="M902 2436.5L-378 2514L42.3892 906.228C56.4902 852.298 130.096 845.067 154.423 895.221L902 2436.5Z" fill="#2F7DBD" fill-opacity="0.1"/>
<path d="M920.013 1826.73C942.397 1812.36 945.393 1780.82 926.113 1762.5L734.532 1580.45C705.686 1553.04 658.633 1578.66 665.998 1617.76L717.245 1889.86C722.626 1918.43 755.21 1932.48 779.679 1916.78L920.013 1826.73Z" fill="#245481" fill-opacity="0.24"/>
<path d="M328.795 2541.33C352.246 2556.65 383.817 2544.47 390.893 2517.36L529.727 1985.47C539.89 1946.54 493.73 1917.79 463.267 1944.08L52.7193 2298.42C32.0768 2316.24 34.2543 2348.87 57.0812 2363.78L328.795 2541.33Z" fill="#326A9B" fill-opacity="0.7"/>
<path d="M1015.05 1281.02C1021.29 1249.36 990.19 1223.23 960.077 1234.85L754.562 1314.08C725.133 1325.43 719.001 1364.37 743.518 1384.21L907.315 1516.78C931.318 1536.2 967.368 1523.13 973.336 1492.83L1015.05 1281.02Z" fill="#295987" fill-opacity="0.29"/>
<path d="M228.968 1963.22C250.824 1944.85 247.672 1910.31 222.849 1896.2L-62.1921 1734.12C-94.7377 1715.62 -133.02 1746.83 -121.451 1782.43L-18.9304 2097.96C-9.94306 2125.63 24.1865 2135.39 46.4479 2116.68L228.968 1963.22Z" fill="#255987" fill-opacity="0.49"/>
<path opacity="0.36" d="M1166.41 2031.01C1200.08 1961.53 1125.52 1889.38 1057.18 1925.32L861.077 2028.44C829.962 2044.8 813.174 2079.56 819.702 2114.1L860.699 2331.05C875.015 2406.82 977.675 2420.47 1011.3 2351.09L1166.41 2031.01Z" fill="#4987BE" fill-opacity="0.46"/>
<circle cx="193.5" cy="193.5" r="193.5" transform="matrix(0 -1 -1 0 563 1825)" fill="#2F6595"/>
<path d="M907.307 2146.27C924.2 2182.3 883.837 2218.22 850.014 2197.25L712.641 2112.09C690.33 2098.26 687.164 2067.05 706.243 2049.02L773.769 1985.2C793.576 1966.49 825.892 1972.62 837.46 1997.3L907.307 2146.27Z" fill="#386E9C"/>
<path d="M583.988 2171.91C577.4 2210.44 525.142 2217.62 508.41 2182.29L461.593 2083.45C449.499 2057.91 466.971 2028.23 495.165 2026.41L559.593 2022.25C585.378 2020.58 605.953 2043.44 601.599 2068.9L583.988 2171.91Z" fill="#3871A1"/>
<path d="M102.052 1735.3C107.767 1754.41 98.5263 1774.81 80.3902 1783.12L22.1419 1809.81C-11.4893 1825.22 -46.2193 1790.64 -30.956 1756.94L8.93644 1668.87C24.1997 1635.17 73.0981 1638.47 83.6963 1673.91L102.052 1735.3Z" fill="#255786"/>
<path d="M1084.76 1439.63C1109.06 1440.09 1119.51 1470.65 1100.57 1485.89L950.322 1606.77C935.64 1618.59 913.66 1611.35 908.875 1593.12L876.251 1468.83C871.874 1452.15 884.645 1435.91 901.883 1436.23L1084.76 1439.63Z" fill="#295A87"/>
</g>
<defs>
<linearGradient id="paint0_linear_7_77" x1="27.7734" y1="50.5556" x2="2047.56" y2="928.103" gradientUnits="userSpaceOnUse">
<stop stop-color="#3F77A5"/>
<stop offset="0.564077" stop-color="#17426F"/>
<stop offset="1" stop-color="#041F47"/>
</linearGradient>
<clipPath id="clip0_7_77">
<rect width="2133" height="1200" fill="white" transform="matrix(0 -1 -1 0 1200 2133)"/>
</clipPath>
</defs>
</svg>
