<svg width="1200" height="2733" viewBox="0 0 1200 2733" fill="none" xmlns="http://www.w3.org/2000/svg">
<g clip-path="url(#clip0_7_77)">
<rect width="2733" height="1200" transform="matrix(0 -1 -1 0 1200 2733)" fill="url(#paint0_linear_7_77)"/>
<path d="M902 3036.5L-378 3114L42.3892 1506.23C56.4902 1452.3 130.096 1445.07 154.423 1495.22L902 3036.5Z" fill="#2F7DBD" fill-opacity="0.1"/>
<path d="M920.013 2426.73C942.397 2412.36 945.393 2380.82 926.113 2362.5L734.532 2180.45C705.686 2153.04 658.633 2178.66 665.998 2217.76L717.245 2489.86C722.626 2518.43 755.21 2532.48 779.679 2516.78L920.013 2426.73Z" fill="#245481" fill-opacity="0.24"/>
<path d="M328.795 3141.33C352.246 3156.65 383.817 3144.47 390.893 3117.36L529.727 2585.47C539.89 2546.54 493.73 2517.79 463.267 2544.08L52.7193 2898.42C32.0768 2916.24 34.2543 2948.87 57.0812 2963.78L328.795 3141.33Z" fill="#326A9B" fill-opacity="0.7"/>
<path d="M1015.05 1881.02C1021.29 1849.36 990.19 1823.23 960.077 1834.85L754.562 1914.08C725.133 1925.43 719.001 1964.37 743.518 1984.21L907.315 2116.78C931.318 2136.2 967.368 2123.13 973.336 2092.83L1015.05 1881.02Z" fill="#295987" fill-opacity="0.29"/>
<path d="M228.968 2563.22C250.824 2544.85 247.672 2510.31 222.849 2496.2L-62.1921 2334.12C-94.7377 2315.62 -133.02 2346.83 -121.451 2382.43L-18.9304 2697.96C-9.94306 2725.63 24.1865 2735.39 46.4479 2716.68L228.968 2563.22Z" fill="#255987" fill-opacity="0.49"/>
<path opacity="0.36" d="M1166.41 2631.01C1200.08 2561.53 1125.52 2489.38 1057.18 2525.32L861.077 2628.44C829.962 2644.8 813.174 2679.56 819.702 2714.1L860.699 2931.05C875.015 3006.82 977.675 3020.47 1011.3 2951.09L1166.41 2631.01Z" fill="#4987BE" fill-opacity="0.46"/>
<circle cx="193.5" cy="193.5" r="193.5" transform="matrix(0 -1 -1 0 563 2425)" fill="#2F6595"/>
<path d="M907.307 2746.27C924.2 2782.3 883.837 2818.22 850.014 2797.25L712.641 2712.09C690.33 2698.26 687.164 2667.05 706.243 2649.02L773.769 2585.2C793.576 2566.49 825.892 2572.62 837.46 2597.3L907.307 2746.27Z" fill="#386E9C"/>
<path d="M583.988 2771.91C577.4 2810.44 525.142 2817.62 508.41 2782.29L461.593 2683.45C449.499 2657.91 466.971 2628.23 495.165 2626.41L559.593 2622.25C585.378 2620.58 605.953 2643.44 601.599 2668.9L583.988 2771.91Z" fill="#3871A1"/>
<path d="M102.052 2335.3C107.767 2354.41 98.5263 2374.81 80.3902 2383.12L22.1419 2409.81C-11.4893 2425.22 -46.2193 2390.64 -30.956 2356.94L8.93644 2268.87C24.1997 2235.17 73.0981 2238.47 83.6963 2273.91L102.052 2335.3Z" fill="#255786"/>
<path d="M1084.76 2039.63C1109.06 2040.09 1119.51 2070.65 1100.57 2085.89L950.322 2206.77C935.64 2218.59 913.66 2211.35 908.875 2193.12L876.251 2068.83C871.874 2052.15 884.645 2035.91 901.883 2036.23L1084.76 2039.63Z" fill="#295A87"/>
</g>
<defs>
<linearGradient id="paint0_linear_7_77" x1="35.5859" y1="50.5556" x2="2384.2" y2="1358.01" gradientUnits="userSpaceOnUse">
<stop stop-color="#3F77A5"/>
<stop offset="0.564077" stop-color="#17426F"/>
<stop offset="1" stop-color="#041F47"/>
</linearGradient>
<clipPath id="clip0_7_77">
<rect width="2733" height="1200" fill="white" transform="matrix(0 -1 -1 0 1200 2733)"/>
</clipPath>
</defs>
</svg>
