<svg width="114" height="117" viewBox="0 0 114 117" fill="none" xmlns="http://www.w3.org/2000/svg">
<path d="M36.5 13.9998H13C7.47715 13.9998 3 18.4769 3 23.9998V104C3 109.523 7.47715 114 13 114H93C98.5228 114 103 109.523 103 104V77.4998" stroke="black" stroke-width="5" stroke-linecap="round"/>
<path d="M88.1572 7.36914L40.028 55.3645" stroke="black" stroke-width="5" stroke-linecap="round"/>
<path d="M106.999 24.999L58.6114 73.9472" stroke="black" stroke-width="5" stroke-linecap="round"/>
<path d="M40.0615 55.3979L58.6112 73.9476" stroke="black" stroke-width="5" stroke-linecap="round"/>
<path d="M37.5179 76.4916L40.0619 55.398" stroke="black" stroke-width="5" stroke-linecap="round"/>
<path d="M37.8378 76.811L48.4703 76.4128" stroke="black" stroke-width="5" stroke-linecap="round"/>
<line x1="87.528" y1="7.93145" x2="106.089" y2="26.4921" stroke="black" stroke-width="5"/>
<path d="M86 6C88 3.5 92.6028 0.235934 96.708 0.0211841C100.813 -0.193566 104.836 1.2313 107.89 3.98227C110.945 6.73324 112.782 10.5851 112.997 14.6903C113.211 18.7955 111.751 23.4453 109 26.5L105.58 22.7609C107.506 20.6226 108.503 17.8069 108.353 14.9332C108.203 12.0596 106.917 9.36327 104.779 7.4376C102.64 5.51192 99.8246 4.51451 96.9509 4.66484C94.0773 4.81516 91.4257 6.86173 89.5 9L86 6Z" fill="black"/>
</svg>
