<svg width="104" height="100" viewBox="0 0 104 100" fill="none" xmlns="http://www.w3.org/2000/svg">
<path d="M101.475 95.3223L96.2778 91.1859C94.0774 89.4346 92.2711 87.2389 90.9768 84.7421L88 79" stroke="black" stroke-width="5" stroke-linecap="round"/>
<path d="M101.475 95.3223L100.728 95.6602C95.3415 98.0959 89.1536 98.0241 83.8254 95.464L81.3554 94.2772L75 91" stroke="black" stroke-width="5" stroke-linecap="round"/>
<path d="M50.1283 29.12C52.9443 29.12 55.3976 29.568 57.4883 30.464C59.5789 31.36 61.2003 32.64 62.3523 34.304C63.5469 35.968 64.1443 37.952 64.1443 40.256C64.1443 42.7307 63.5896 44.8 62.4803 46.464C61.4136 48.0853 59.9629 49.3227 58.1283 50.176C56.3363 51.0293 54.3309 51.584 52.1123 51.84V58.688H46.8003V49.088C49.9149 48.6187 52.3256 48.0427 54.0323 47.36C55.7816 46.6773 56.9976 45.824 57.6803 44.8C58.4056 43.776 58.7683 42.5173 58.7683 41.024C58.7683 39.5307 58.4269 38.2507 57.7443 37.184C57.1043 36.1173 56.1229 35.3067 54.8003 34.752C53.4776 34.1973 51.7923 33.92 49.7443 33.92C46.9283 33.92 44.6243 34.7093 42.8323 36.288C41.0829 37.824 40.0376 39.936 39.6963 42.624L35.1523 40C35.6216 37.824 36.5176 35.9253 37.8403 34.304C39.2056 32.64 40.9123 31.36 42.9603 30.464C45.0509 29.568 47.4403 29.12 50.1283 29.12ZM49.3603 64.32C50.5976 64.32 51.6003 64.704 52.3683 65.472C53.1363 66.24 53.5203 67.2427 53.5203 68.48C53.5203 69.7173 53.1363 70.72 52.3683 71.488C51.6003 72.256 50.5976 72.64 49.3603 72.64C48.1229 72.64 47.1203 72.256 46.3523 71.488C45.5843 70.72 45.2003 69.7173 45.2003 68.48C45.2003 67.2427 45.5843 66.24 46.3523 65.472C47.1203 64.704 48.1229 64.32 49.3603 64.32Z" fill="black"/>
<path d="M86.3153 80.6178C87.3709 81.5078 88.9536 81.3771 89.7898 80.2783C96.9209 70.9077 100.533 59.2936 99.9364 47.4798C99.2981 34.8316 93.884 22.8969 84.7875 14.0858C75.691 5.27466 63.5898 0.243603 50.9278 0.00860864C38.2657 -0.226386 25.9862 4.35219 16.5691 12.8197C7.15187 21.2873 1.29866 33.0129 0.191458 45.6286C-0.91575 58.2443 2.80554 70.8102 10.6038 80.7887C18.4021 90.7671 29.6964 97.4146 42.2058 99.3888C53.8901 101.233 65.8213 98.8711 75.8945 92.7724C77.0756 92.0574 77.3731 90.4974 76.5999 89.3534V89.3534C75.8267 88.2095 74.2757 87.9156 73.0907 88.6242C64.0702 94.0172 53.4183 96.0964 42.9852 94.4499C31.7267 92.6732 21.5619 86.6904 14.5434 77.7098C7.52498 68.7292 4.17583 57.4199 5.17231 46.0657C6.1688 34.7116 11.4367 24.1586 19.9121 16.5378C28.3876 8.91697 39.4392 4.79625 50.835 5.00775C62.2309 5.21924 73.1219 9.74719 81.3088 17.6772C89.4956 25.6072 94.3683 36.3485 94.9428 47.7318C95.4752 58.2806 92.2797 68.6524 85.9617 77.051C85.1317 78.1544 85.2597 79.7278 86.3153 80.6178V80.6178Z" fill="black"/>
</svg>
