<svg width="100" height="100" viewBox="0 0 100 100" fill="none" xmlns="http://www.w3.org/2000/svg">
<path d="M50 2.5C76.2339 2.5 97.5 23.7639 97.5 49.9932C97.4999 76.2224 76.2338 97.4863 50 97.4863C23.7662 97.4863 2.50011 76.2224 2.5 49.9932C2.5 23.7639 23.7661 2.5 50 2.5Z" stroke="black" stroke-width="5"/>
<path d="M49.2188 25.9341C59.4881 25.9341 67.8125 34.2578 67.8125 44.5249C67.8125 54.792 59.4881 63.1157 49.2188 63.1157C38.9494 63.1157 30.625 54.792 30.625 44.5249C30.625 34.2578 38.9494 25.9341 49.2188 25.9341Z" stroke="black" stroke-width="5"/>
<path d="M50 74.365C58.49 74.365 62.5817 74.5897 66.4434 76.1785C70.1022 77.6838 73.6901 80.4661 80.3379 86.0613C79.6546 86.9201 78.6895 87.8585 77.4238 88.8328C75.3873 90.4003 72.7493 91.9276 69.7412 93.2566C63.7012 95.925 56.4554 97.6694 50.0713 97.4871L50.0361 97.4861H50C42.9412 97.4861 35.277 95.7313 29.4297 93.1433C26.5036 91.8482 24.152 90.3971 22.5752 88.9529C21.498 87.9661 20.9241 87.1177 20.6592 86.4382C26.9541 80.5262 30.2619 77.6819 33.79 76.1628C37.4324 74.5947 41.4901 74.365 50 74.365Z" stroke="black" stroke-width="5"/>
</svg>
