<svg width="105" height="105" viewBox="0 0 105 105" fill="none" xmlns="http://www.w3.org/2000/svg">
<path d="M51.7746 36.7708C59.9625 36.771 66.5724 43.3619 66.5724 51.4583C66.5724 59.5546 59.9625 66.1455 51.7746 66.1458C43.5865 66.1458 36.9758 59.5548 36.9758 51.4583C36.9758 43.3617 43.5865 36.7708 51.7746 36.7708Z" stroke="black" stroke-width="5"/>
<path d="M62.068 89.4166L62.8882 87.245C63.564 85.4559 65.2856 84.2708 67.2089 84.2708C68.332 84.2708 69.4166 84.6778 70.2594 85.4155L78.002 92.1924C80.2159 94.1301 83.6024 93.8716 85.4923 91.6206L92.0426 83.8187C93.801 81.7243 93.6355 78.6368 91.663 76.7399L86.7556 72.0206C85.8871 71.1854 85.3358 70.0776 85.195 68.8849L85.082 67.9276C84.8958 66.3499 85.4444 64.774 86.5719 63.6478L86.8098 63.4102C87.7937 62.4275 89.1311 61.875 90.5262 61.875H97.2581C100.153 61.875 102.5 59.5431 102.5 56.6667V47.8125C102.5 44.936 100.153 42.6042 97.2581 42.6042H90.933C89.7943 42.6042 88.6866 42.2357 87.7773 41.5546L86.8734 40.8775C85.5597 39.8934 84.7872 38.3535 84.7872 36.7187V36.2873C84.7872 35.056 85.2262 33.8646 86.0264 32.9244L91.082 26.9836C92.8096 24.9535 92.7211 21.9565 90.8767 20.0305L85.3317 14.2402C83.4674 12.2935 80.4185 12.0756 78.293 13.7371L71.5156 19.0349C70.2066 20.0581 68.4671 20.3577 66.8879 19.8319C66.3825 19.6636 65.9079 19.4153 65.4824 19.0965L63.8199 17.8512C62.5062 16.867 61.7337 15.3272 61.7337 13.6924V7.5C61.7337 4.73858 59.4952 2.5 56.7337 2.5H48.2663C45.5048 2.5 43.2663 4.73858 43.2663 7.5V13.6924C43.2663 15.3272 42.4938 16.867 41.1801 17.8512L39.5176 19.0965C39.0921 19.4153 38.6175 19.6636 38.1121 19.8319C36.5329 20.3577 34.7934 20.0581 33.4844 19.0349L26.707 13.7371C24.5815 12.0756 21.5326 12.2935 19.6683 14.2402L14.1233 20.0305C12.2789 21.9565 12.1904 24.9535 13.918 26.9836L18.9736 32.9244C19.7738 33.8646 20.2128 35.056 20.2128 36.2873V36.7187C20.2128 38.3535 19.4403 39.8934 18.1266 40.8775L17.2227 41.5546C16.3134 42.2357 15.2057 42.6042 14.067 42.6042H7.74193C4.84689 42.6042 2.5 44.936 2.5 47.8125V56.6667C2.5 59.5431 4.84689 61.875 7.74193 61.875H14.4739C15.8689 61.875 17.2063 62.4275 18.1902 63.4102L18.4281 63.6478C19.5556 64.774 20.1042 66.3499 19.918 67.9276L19.805 68.8849C19.6642 70.0776 19.1129 71.1854 18.2444 72.0206L13.337 76.7399C11.3645 78.6368 11.199 81.7243 12.9574 83.8187L19.5077 91.6206C21.3976 93.8716 24.7841 94.1301 26.998 92.1924L34.7406 85.4155C35.5834 84.6778 36.668 84.2708 37.7911 84.2708C39.7144 84.2708 41.436 85.4559 42.1118 87.245L42.932 89.4166C43.153 90.0018 43.2663 90.6217 43.2663 91.2467V97.5C43.2663 100.261 45.5048 102.5 48.2663 102.5H56.7337C59.4952 102.5 61.7337 100.261 61.7337 97.5V91.2467C61.7337 90.6217 61.847 90.0018 62.068 89.4166Z" stroke="black" stroke-width="5" stroke-linecap="round"/>
</svg>
